<svg xmlns="http://www.w3.org/2000/svg" viewBox="0 0 961.99 735.82"><defs><style>.cls-1{isolation:isolate;}.cls-15,.cls-2{fill:#d67086;}.cls-2{opacity:0.14;}.cls-16,.cls-2,.cls-7{mix-blend-mode:multiply;}.cls-3{fill:#3b3387;}.cls-4{fill:#59595b;}.cls-5{fill:#fff;}.cls-6{fill:#e6e6e7;}.cls-7{fill:#272525;opacity:0.26;}.cls-8{fill:#eac5b0;}.cls-9{fill:#292949;}.cls-10{fill:#353a85;}.cls-11{fill:#dddae8;}.cls-12{fill:#474ebb;}.cls-13{fill:#8cabef;}.cls-14{fill:#b97262;}.cls-16{opacity:0.06;}.cls-17{fill:#3a332d;}.cls-18{fill:#babcbe;}.cls-19{fill:#3b455a;}.cls-20{fill:#eed5d5;}.cls-21{fill:#5d66d3;}</style></defs><title>nav-image</title><g class="cls-1"><g id="Layer_2" data-name="Layer 2"><g id="object"><path class="cls-2" d="M14.76,700.47c8.72-2.16,18.73-1.85,28.29-1.53,114,3.81,236.15-2.34,350.34-3.94,108.66-1.52,209.35,1.63,318-.42,72-1.36,144.18-2.37,215.81,1.58,12.79.7,28.78,3.23,30.14,10.2,1.23,6.3-11,10.75-22,12.84-25.4,4.82-46,9.22-72.9,9.81-62,1.36-130,4.64-192,6-84.15,1.84-150,0-240,0-78,0-174-.87-256-4-41.09-1.57-84.52-.61-125-4.63C31.68,724.61-27.15,710.83,14.76,700.47Z"/><rect class="cls-3" x="474.3" y="130.38" width="238.24" height="158.56" transform="translate(-31.39 134.08) rotate(-12.56)"/><rect class="cls-4" x="454.02" y="104.65" width="238.97" height="27.88" transform="matrix(0.98, -0.22, 0.22, 0.98, -12.06, 127.57)"/><polygon class="cls-5" points="665.51 112.37 693.16 106.21 687.1 79 686.66 79.1 665.51 112.37"/><polygon class="cls-6" points="453.85 130.97 458.98 154 476.88 125.84 453.85 130.97"/><polygon class="cls-5" points="518.22 116.63 497.07 149.9 539.95 140.35 561.1 107.07 518.22 116.63"/><polygon class="cls-5" points="602.44 97.86 581.29 131.13 624.17 121.58 645.32 88.31 602.44 97.86"/><polygon class="cls-3" points="476.88 125.84 458.98 154 459.91 158.18 497.07 149.9 518.22 116.63 476.88 125.84"/><polygon class="cls-3" points="561.1 107.07 539.95 140.35 581.29 131.13 602.44 97.86 561.1 107.07"/><polygon class="cls-3" points="645.32 88.31 624.17 121.58 665.51 112.37 686.66 79.1 645.32 88.31"/><polygon class="cls-6" points="479.38 118.34 453.99 130.9 441.63 105.91 442.04 105.71 479.38 118.34"/><polygon class="cls-5" points="655.85 0 666.31 21.15 634.7 10.46 655.85 0"/><polygon class="cls-5" points="596.73 29.23 634.08 41.86 594.7 61.33 557.36 48.7 596.73 29.23"/><polygon class="cls-5" points="519.39 67.47 556.73 80.1 517.35 99.57 480.01 86.94 519.39 67.47"/><polygon class="cls-3" points="634.7 10.46 666.31 21.15 668.21 24.99 634.08 41.86 596.73 29.23 634.7 10.46"/><polygon class="cls-3" points="557.36 48.7 594.7 61.33 556.73 80.1 519.39 67.47 557.36 48.7"/><polygon class="cls-3" points="480.01 86.94 517.35 99.57 479.38 118.34 442.04 105.71 480.01 86.94"/><polygon class="cls-3" points="459.91 158.18 441.65 105.95 467.04 93.38 516.12 145.66 459.91 158.18"/><polygon class="cls-7" points="467.04 93.38 495.27 110.49 486.74 114.36 467.04 93.38"/><polygon class="cls-7" points="493.94 122.04 524.28 143.84 516.12 145.66 493.94 122.04"/><circle class="cls-5" cx="461.46" cy="110.49" r="3.77" transform="translate(-13.01 116.01) rotate(-14.13)"/><circle class="cls-5" cx="465.98" cy="143.89" r="3.77" transform="translate(-21.03 118.12) rotate(-14.13)"/><circle class="cls-5" cx="492.97" cy="137.1" r="3.77" transform="translate(-18.55 124.51) rotate(-14.13)"/><rect class="cls-5" x="495.07" y="253.51" width="216.61" height="1.61" transform="translate(-40.87 137.31) rotate(-12.56)"/><rect class="cls-5" x="567.43" y="264.38" width="1.78" height="26.31" transform="translate(-46.76 130.24) rotate(-12.56)"/><rect class="cls-5" x="644.08" y="247.3" width="1.78" height="26.31" transform="translate(-41.21 146.5) rotate(-12.56)"/><rect class="cls-5" x="473.07" y="154.7" width="216.61" height="1.78" transform="translate(-19.92 130.16) rotate(-12.56)"/><path class="cls-8" d="M695.71,325.81a12.81,12.81,0,0,0-4.28-5c-6.69-5-15.78-6.34-24-4.45-3.2.74-6.55,2.14-8.15,5a14.3,14.3,0,0,0-1.36,5.41l-1.87,16.13a11.72,11.72,0,0,0,0,3.91c.91,4.06,5.55,5.87,9.54,7q-.18,1.93-.25,3.86c0,.16,1.76,9.37,13.52,5.69a2.68,2.68,0,0,0,1.83-2.08c.36-2,.85-3.84,2.42-5s3.72-1,5.48-1.85c3.33-1.51,4.44-5.6,5.17-9.17l1.91-9.33C696.38,332.59,697,329,695.71,325.81Z"/><path class="cls-9" d="M725.19,307.79a45.42,45.42,0,0,0-1.73-10.62c-1.56-5.66-8.46-7.86-14.32-8C696.47,289,684,284,671.89,289c-6.91,2.91-16.34,4-22.53,7.93a18.86,18.86,0,0,0-6.1,6.72,28.41,28.41,0,0,0,1.59,30,40.61,40.61,0,0,0,4.72,5.32c3.53,3.42,7.75,7.66,12.4,8.74-.12-4.1-4.56-16.8-1.61-20.33,4.69-5.6,16.07-4.37,22.34-3.4,6.83,1.06,13.11,5.5,19.86,6.15,4.86.47,10.87-2.23,14.83-5C723.59,321,725.39,314.39,725.19,307.79Z"/><polygon class="cls-10" points="738.58 540.97 719.24 708.17 704.31 708.17 687.13 556.44 661.23 553.63 712.65 517.09 737.39 516.92 738.58 540.97"/><polygon class="cls-9" points="704.28 707.86 704.39 708.08 710.5 720.9 719.95 721.77 725.67 717.32 718.76 707.86 704.28 707.86"/><path class="cls-10" d="M611.13,522.17c-4.48.73-6.06,3.45-7.08,9.5-1.34,7.94,17.08-3.63,21.73,3.37,5.91,8.9,4.8,27.54,7.58,41.4,1.74,8.66-1.76,20.22-2.37,29-1.34,19.27-5.77,80.81-7.11,100.08l16,2.36,44.44-149.06L691,530.51l-19.42-10.7c-11.57,1.59-25.25,5.7-36.89,5.08-6.66-.36-13.06-2.75-19.73-2.92A20.65,20.65,0,0,0,611.13,522.17Z"/><polygon class="cls-9" points="623.91 705.19 623.99 705.44 628.51 720.13 638.48 722.56 645.3 718.71 639.41 707.48 623.91 705.19"/><path class="cls-11" d="M754.46,534.75c-16.28-14-14.87-53.06-14.88-53.07l-15.15-77.91a50.1,50.1,0,0,0-8.85-20.16L705,369.21l-48.2-9.89s-27.81-4.94-44.88,84c-3.72,19.41-9.72,42.57-10.75,66.65-1.84,11.21-5.42,21.93-7.61,33.05-.63,3.23-1.78,8.83,1.08,11.41,3.48,3.14,10.27,1.86,14,.76,12.72-3.83,25.22-9.77,38.06-13.18,14.44-3.83,29.22-7.79,44.15-9.08,11.64-1,20.79,2.6,31.89,4.89,6.51,1.35,8.32,4.24,14.91,5.14C753.73,545.19,766,544.66,754.46,534.75Z"/><polygon class="cls-12" points="651.37 343.52 636.14 374.09 713.59 396.44 716.72 369.21 651.37 343.52"/><polygon class="cls-12" points="691.46 348.76 673.5 354.66 645.42 376.77 642.2 504.33 693.45 497.01 681.5 388.73 708.58 372.33 715.9 363.69 691.46 348.76"/><polygon class="cls-8" points="585.89 285.53 578.55 272.14 572.69 275.03 579.21 288.83 572.29 285.39 579.97 296.08 586.46 293.9 585.89 285.53"/><path class="cls-11" d="M597.57,373.48l-21.42-80.15,13.11-3.67,46.88,84.43-17.72,41.18C618.47,415.21,597.53,373.54,597.57,373.48Z"/><path class="cls-8" d="M734.85,378l5.74-14.17,6.38,2.39c.48.18.92,6.52.88,7.09-.09,1.19-4,15.18-5.54,14.81l-6.94-1.62Z"/><path class="cls-11" d="M737.45,453.61l8.4-68.6L732,382.48l-28.25,78,33.91-6.68Z"/><polygon class="cls-13" points="61.57 470 41.83 464.57 37.45 440.48 68.21 384.18 68.21 425.08 61.57 470"/><polygon class="cls-9" points="59.55 704.09 59.19 712.35 77.35 721.32 83.95 713.43 76.06 704.82 60.92 695.93 59.55 704.09"/><polygon class="cls-10" points="154.32 515.98 171.99 544.57 140.78 707.69 125.51 706.97 121.03 538.9 125.3 491.28 154.32 515.98"/><polygon class="cls-9" points="127.31 713.41 143.43 722.44 150.06 714.58 142.19 705.93 125.69 705.15 127.31 713.41"/><path class="cls-10" d="M134.29,498.74l-19,7.13L61.57,469.66l4.26,47.73,11.83,16.55c2.61,1.82-3.12,38.13-4.37,51L60,700.74l16.23,4,43.87-138.38Z"/><path class="cls-13" d="M181.7,492.32c-6.14-20.77-.53-1.38-6.74-22.13-6.86-23-13.78-46.17-24.05-67.9a239,239,0,0,0-11.53-21.49c-2.66-4.39-8.25-17.16-13.19-19-4.08-1.53-13.1,1.23-17.58,1.58-7.5.57-15,1.42-22.21,3.88q-1.76.61-3.46,1.34c-1.14.51-15.78,7.46-17.56,31.21-1.85,24.72,1.24,64.27-8.65,85.28S38.33,527.94,43.2,551.31h0a71.47,71.47,0,0,1,40.68-12.62c13.89.07,107.08,20.91,116.23,5.9C202.11,541.32,183.57,498.65,181.7,492.32Z"/><path class="cls-14" d="M78.67,323.67c7.73-20.57,38.44-26.63,44.56-2.12,1.84,7.37,2.81,15.14,1.07,22.53s-6.57,14.35-13.64,17.13l-.12,0,.58,5.83a1.31,1.31,0,0,1-1.46,1.74l-7,.76a7.62,7.62,0,0,1-3.43-.15c-2.38-.87-3.27-3.8-3.27-6.33,0-.61,0-1.22.06-1.83C80.34,355.15,73.62,337.12,78.67,323.67Z"/><path class="cls-9" d="M122.11,294.48c5.24,0,8.87,5.62,13.21,8.93,3.61,2.76,8,4,11.8,6.4s7.26,6.76,6.65,11.47c4.45-1.54,9.26-3.08,13.75-1.5s8,7.75,5.45,12c-2.26,3.84-7.72,4-10.09,7.76-3.75,5.94,2.36,16.93-3.43,20.38-1.39.83-3.12.82-4.5,1.68-1.71,1.07-2.53,3.22-3.5,5.1-4.39,8.51-14.3,13-23.05,10.5a24,24,0,0,1-9.86-15.9c-1.29-7.77,3.06-9.77,4.77-16.63A30.68,30.68,0,0,0,120,322.18c-2.55-4.31-6.51-8.28-11.16-9.43-1.89-.47-1.52,1.22-3.46-.58a9.71,9.71,0,0,1-1.83-4.56C109.37,304.22,115.22,294.48,122.11,294.48Z"/><path class="cls-9" d="M65.21,296.1c-2.75.34-5.61-.19-8.29.54-4,1.1-4.38,5.06-6,8.31-1.75,3.6-4.22,8.42-7.15,11-2.11,1.85-4.8,2.68-7.23,4s-4.8,3.42-5.19,6.37c-.37,2.8,1.13,5.58,1,8.41-.28,4.2-1.32,6.22-.67,10.66.34,2.29.73,4.72,2.15,6.46,1.87,2.29,5,2.71,7.74,2.66s5.69-.39,8.23.91c5.51,2.81,3.55,8.51,4.37,13.66,1.24,7.83,9.26,13.48,16.29,11.8,6-1.42,10.18-7.47,10.89-13.95.35-3.25-.49-6.44-.1-9.69s2.77-7.18.31-10.07a22.76,22.76,0,0,1-1.95-1.93A4.62,4.62,0,0,1,79,343a9,9,0,0,1,2.58-7.13c1.3-1.25,3-2.06,3.94-3.67,1.06-1.84.79-4.22,1-6.41.46-5.28,4.09-10,8.75-11.36,3.07-.9,5.77-1.31,8.59-3,.43-.25,6.89-4.45,6.87-3.34a11.62,11.62,0,0,0-1.73-5.45,22.91,22.91,0,0,0-5.54-7.41c-7.69-6.1-9.77,5.11-16.29,2.63-1.57-.6-2.58-2.27-3.91-3.38-2.52-2.09-6-2-9-1.16S68.31,295.72,65.21,296.1Z"/><path class="cls-15" d="M96.82,426.83l-6.1,2.24L75.2,386.75c-1.44-3.48-1.64-11.49,7.69-17.58l22.65-16,3.74,5.21L86.47,374.49c-7.32,4.74-5.28,9.75-5.26,9.8l.06.16Z"/><polygon class="cls-16" points="75.38 387.26 75.83 388.46 81.82 385.94 81.37 384.73 75.38 387.26"/><path class="cls-16" d="M80.94,382.84l-6.47.36a12.07,12.07,0,0,0,.12,1.28l6.55-.36A5.22,5.22,0,0,1,80.94,382.84Z"/><path class="cls-16" d="M81.17,380.81,75,379c-.12.42-.22.84-.3,1.25L81,382.09A6.8,6.8,0,0,1,81.17,380.81Z"/><path class="cls-16" d="M82,378.83,76.86,375q-.37.56-.67,1.11L81.44,380A8.36,8.36,0,0,1,82,378.83Z"/><path class="cls-16" d="M79,372.39,82.59,378a11.54,11.54,0,0,1,.88-1l-3.57-5.47C79.57,371.77,79.25,372.08,79,372.39Z"/><path class="cls-15" d="M169.84,537.35l-36.25-121L58.31,443.93,109.44,559.5S140.07,557.94,169.84,537.35Z"/><polygon class="cls-5" points="135.73 406.38 132.64 407.52 130.74 402.35 51.45 431.43 53.34 436.6 115.07 413.96 50.25 437.73 53.21 445.8 138.69 414.46 135.73 406.38"/><path class="cls-16" d="M58.31,443.93s59.14-19,78.34-17.4l-3.06-10.21Z"/><path class="cls-16" d="M109.44,559.5s30.62-1.56,60.39-22.15l-27.52-91.89C148,535.35,109.44,559.5,109.44,559.5Z"/><polygon class="cls-5" points="159.89 499.33 144.75 448.24 70.42 475.5 92.15 524.17 159.89 499.33"/><path class="cls-16" d="M144.76,448.24s4.52,33.88-10.16,60.36l25.3-9.28Z"/><polygon class="cls-16" points="93.58 523.65 158.59 499.81 160.21 505.21 93.58 523.65"/><path class="cls-16" d="M130.74,402.35l1.89,5.17L95.22,421.24S126.69,409.58,130.74,402.35Z"/><polygon class="cls-14" points="149.28 377.42 148.03 362.2 154.51 361.38 157.67 371.61 160.56 369.81 160.04 382.96 153.41 384.72 149.28 377.42"/><path class="cls-13" d="M184.31,443.28l-22.6-64.72-13,4.16,8.52,81.91,27.25-21.28Z"/><polygon class="cls-14" points="94.05 475.35 108.83 479.19 110.74 472.95 101.2 468.08 103.48 465.55 90.43 463.8 87.57 470.02 94.05 475.35"/><polygon class="cls-13" points="95.05 462.91 59.13 445.8 61.49 470.13 88.73 474.97 95.05 462.91"/><polygon class="cls-17" points="892.35 480.12 899.77 447.69 879.65 386.8 852.66 369.84 882.22 469.69 892.35 480.12"/><polygon class="cls-8" points="790.41 367.45 793.36 352.52 787.41 350.87 783.26 360.6 780.78 358.44 779.73 371.54 785.69 374.14 790.41 367.45"/><path class="cls-10" d="M778.68,367,750,428.2l-.09,0,30.62,24.5,9.72-79.93Z"/><polygon class="cls-9" points="791.8 711.28 781.44 726.55 789.49 730 804.44 719.07 805.59 707 791.8 711.28"/><polygon class="cls-9" points="863.35 707.98 856.01 724.91 864.56 726.8 877.22 713.29 876.1 701.21 863.35 707.98"/><path class="cls-18" d="M774,530.1l8.6,54,8.6,128.64H806.3l10.24-124.31,7.78-73S778.87,522,774,530.1Z"/><path class="cls-18" d="M810.92,534.05l33.19,111.74,18,64.5,15.18-2.87L868.6,641V511.75S814.33,525.16,810.92,534.05Z"/><path class="cls-8" d="M813.12,329.45a16.78,16.78,0,0,1,1.82-2.85,17.94,17.94,0,0,1,7.13-5.12,25.26,25.26,0,0,1,25.81,4.17c8.88,7.76,11.17,22.83,5,33a16.32,16.32,0,0,1-4.37,4.59,23.19,23.19,0,0,1-7.55,3.64,41.85,41.85,0,0,0,2.9,7l-15.67,1.78-1-9a22.39,22.39,0,0,1-4.08-1.74c-11-6.12-12.76-17.29-11.42-32A9.92,9.92,0,0,1,813.12,329.45Z"/><path class="cls-9" d="M839.78,331c-6.8-1.16-13.5-.44-21.39,1.13a5.42,5.42,0,0,0-3,1.26,5.57,5.57,0,0,0-1.13,3.45c-.47,5.05,0,10.2-.43,15.25.08-.9-5.91-6.27-6.61-7.55-2-3.63-2.85-7.76-4.54-11.35-1.62-3.43-3.44-5.59-3.58-9.67a38.6,38.6,0,0,1,1.93-11.62c.89-3.14,2-6.49,4.62-8.41s5.86-2,9-1.82A82,82,0,0,1,849.12,311c4,2.08,10.93,5.08,12.69,9.31,1.16,2.78,1.88,7.86,2.36,12.78l-.44,15.31L853.34,358l-2.95-23.55A41.94,41.94,0,0,0,839.78,331Z"/><path class="cls-10" d="M813,373.09l39.64-3.25S864.65,389,878,448.7C891.3,507.79,889.55,570,889.55,570s-53.37-20.34-130.2-11.66l22.38-145.45Z"/><path class="cls-15" d="M958,423.78a12.69,12.69,0,0,0-1.52-17.62,9.58,9.58,0,0,0-9-12.93,14.1,14.1,0,0,0-19.91-8.28,12.69,12.69,0,0,0-22.52-11,14.81,14.81,0,0,0-18-4.78,12.69,12.69,0,0,0-21.75-1.37,9.57,9.57,0,0,0-13.79,9.31,12.69,12.69,0,0,0-20.94,12.57,12.7,12.7,0,0,0-10.45,12.43Z"/><path class="cls-16" d="M957.45,424.37a12.69,12.69,0,0,0,0-17.19c-36.88,8.41-114.32-3.43-114.32-3.43l-.7,2.5Z"/><path class="cls-13" d="M844,409.07,831.36,536.71c3.24,1,6.8,2,10.63,3.07l15.74-128.55Z"/><path class="cls-13" d="M894.88,417.09,874.45,546.74c3.7.58,7.48,1.09,11.32,1.51l24.85-128.69Z"/><path class="cls-13" d="M820.75,405.41l-9.94,124.13s3.72,1.55,10.16,3.78l12.48-125.91Z"/><path class="cls-13" d="M868.28,412.9,852.42,542.42c3.68.87,7.54,1.7,11.52,2.48l20.4-129.47Z"/><path class="cls-13" d="M958.47,427.11l-12.7-2-27,124.29q5.84-.3,11.64-1Z"/><path class="cls-13" d="M921.16,421.23l-24.71,128q5.64.36,11.36.42l27.4-126.18Z"/><path class="cls-5" d="M884.34,415.43,863.94,544.9c3.41.66,6.92,1.28,10.51,1.84l20.43-129.66Z"/><path class="cls-5" d="M833.45,407.41,821,533.32c2.93,1,6.42,2.17,10.39,3.39L844,409.07Z"/><path class="cls-5" d="M857.73,411.23,842,539.78c3.29.89,6.78,1.78,10.43,2.64L868.28,412.9Z"/><path class="cls-5" d="M935.21,423.44l-27.4,126.18q5.47,0,11-.22l27-124.29Z"/><path class="cls-5" d="M910.61,419.57,885.77,548.26q5.28.58,10.69.94l24.71-128Z"/><rect class="cls-5" x="817.49" y="411.41" width="145" height="4.88" transform="matrix(0.99, 0.16, -0.16, 0.99, 75.26, -133.48)"/><polygon class="cls-16" points="958.47 427.11 957.15 432.79 868.28 412.9 958.47 427.11"/><path class="cls-16" d="M926.39,514.36A81,81,0,0,1,914,521.23a105.68,105.68,0,0,1-13.05,4.8c-3.75,1.12-7.57,2.06-11.42,2.84-4.17.85-8.38,1.53-12.57,2.05-3.69.46-7.36.8-11,1.05-4.21.29-8.35.44-12.34.5-3.72.05-7.32,0-10.74-.08-3.94-.11-7.65-.3-11.05-.54-4-.28-7.61-.61-10.63-.94-6.5-.71-10.4-1.39-10.4-1.39s3.72,1.55,10.16,3.78c2.93,1,6.42,2.17,10.39,3.39,3.24,1,6.8,2,10.63,3.07,3.29.89,6.78,1.78,10.43,2.64s7.54,1.7,11.52,2.48c3.41.66,6.92,1.28,10.51,1.84s7.48,1.09,11.32,1.51q5.28.58,10.69.94,5.64.36,11.36.42,5.47.05,11-.22c3.89-.2,7.78-.53,11.64-1l11.22-48.54A61.81,61.81,0,0,1,926.39,514.36Z"/><polygon class="cls-8" points="940.25 482.57 925.26 485.04 923.76 479.04 933.59 475.2 931.49 472.65 944.61 472.01 947.06 478.06 940.25 482.57"/><polygon class="cls-10" points="952.92 469.06 943.87 469.31 943.87 483.67 947.06 484.38 952.92 469.06"/><path class="cls-10" d="M494.62,415.27s31,34.6,38.23,37.9c5.34,2.45,33.47.67,33.47.67L572,466.48,534.2,480.12s-26-9.18-28-9-8.31.43-8.31.43Z"/><polygon class="cls-8" points="569.92 459.45 573.58 456.07 573.85 448.63 575.33 447.96 576.25 449.95 578.1 443.93 582.17 441.34 588.09 444.26 591.37 450.65 588.33 456.61 581.86 460.63 574.24 468.36 569.92 459.45"/><path class="cls-9" d="M415.06,515s-11.64,37.59.69,39.92c7.06,1.34,4.83,18.21,4.83,18.21L427.12,654,413.45,708.8l15.94.8a185.6,185.6,0,0,0,23-56c8.6-37.94,12.15-80.06,12.44-81.17.54-2.06,12.54-54.3,12.54-54.3Z"/><polygon class="cls-9" points="467.44 552.76 464.81 572.43 488.71 655.41 485.78 713.93 499.86 713.13 511.18 646.87 515.77 547.18 467.44 552.76"/><polygon class="cls-9" points="427.22 707.54 434.62 719.34 429.86 727.04 417.19 724.94 412.83 709.18 427.22 707.54"/><path class="cls-9" d="M502.4,710.72a14.31,14.31,0,0,0-6.62-1.56c-3.63-.19-7.31-.58-10.94-.58-1.81-.1,4.76,11.72,5.8,12.65,4.77,4.24,12,6,17.74,2.57a2.6,2.6,0,0,0,1.24-1.24,2.87,2.87,0,0,0-.51-2.23C506.41,715.39,505.2,712.37,502.4,710.72Z"/><path class="cls-10" d="M539.38,597.48c-4.3-10.3-20.52-73.82-20.52-73.82-5.19-14.14-2.95-28.27-6.38-49.31-2.91-17.8-8.14-64.59-29.15-68.4-16.7-3-35,8.6-48.85,22.42h0l0,0s-23.25,23-25.2,75.72A165.58,165.58,0,0,1,402,546.63c-7.61,25-17.14,38.89-8,43.58a31.88,31.88,0,0,0,9.21,2.81c15.07,2.52,37.39-.88,52.08-5.18,18.14-5.3,55.38,5.88,55.38,5.88s6.14,2.62,12.78,4.77C532.22,601.32,541.82,603.34,539.38,597.48Z"/><path class="cls-19" d="M474.31,363.78c6.05,1.56,13.3,7.84,14.41,15.2.53,3.54-.64,6.72.07,10.49,1.37,7.43-7,17.85.49,23.35,3.87,2.82,8.92,2.22,13.52,1.52a3.16,3.16,0,0,0,1.6-.56,3,3,0,0,0,.71-2.85,11.39,11.39,0,0,0-1.23-2.78c-4.9-9.35-2.95-22.32-4.51-32.78s-6-21-14.81-25.66c-4.68,3.08-8.77,6.22-10.2,12.1Z"/><path class="cls-8" d="M483.28,412.15c6-2.55,6.74-12.64,8.38-19.65s1-14.44-.4-21.48c-4.61-23.44-30.67-18.09-37.66,1.4C447.51,389.41,465.76,419.56,483.28,412.15Z"/><path class="cls-9" d="M449.09,421.35c3-1.88,5.93-3.86,7.79-7.57,3-6,2.35-15.55,3-22.17.69-7,1.63-14.58,6.14-19.47,2.94-3.2,6.4-3.94,10.28-4.19,2.66-.17,2.79,1,5-.75,1.69-1.31,3.07-5.06,3.41-7.23a13.34,13.34,0,0,0-3-10.16c-3.38-4.2-7.32-6.18-12.25-6.08-17.32.37-30,12.54-34.42,31.84-2.11,9.28-.12,19.41-2.39,28.35-1.41,5.52-4.41,9.29-5.52,15.15-2.87,15.2-9.76,34.8-8.8,50.34a2.33,2.33,0,0,0,.5,1.58c.8.74,1.94-.26,2.6-1.18l11.49-16.14a30,30,0,0,0,4-6.75c2.33-6.2.84-14,4.59-19.28C443.51,424.75,446.32,423.09,449.09,421.35Z"/><polygon class="cls-20" points="474.08 360.85 375.58 363.19 376.9 418.5 462.45 416.46 474.94 396.99 480.85 396.85 494.25 415.7 580.36 413.65 579.05 358.35 474.08 360.85"/><polygon class="cls-15" points="388.78 373.56 461.95 371.82 462.47 393.63 454.93 405.39 389.57 406.94 388.78 373.56"/><polygon class="cls-12" points="566.36 369.33 493.19 371.07 493.7 392.89 501.79 404.27 567.15 402.71 566.36 369.33"/><polygon class="cls-16" points="461.9 371.8 389.46 406.84 454.88 405.26 462.49 393.38 461.9 371.8"/><polygon class="cls-16" points="566.49 369.4 501.79 404.41 567.21 402.83 566.49 369.4"/><path class="cls-10" d="M424.68,428l10.39,4.84L417.35,497,410,506.74S383.5,492.66,393,472,424.68,428,424.68,428Z"/><polygon class="cls-8" points="423.48 430.71 427.86 423.72 426.66 416.35 427.92 415.25 429.16 416.93 429.72 410.47 433.03 406.72 439.15 407.81 443.47 413.09 441.79 419.85 440.04 429.24 430.88 435.57 423.48 430.71"/><path class="cls-12" d="M406.51,207.81C384,215,357.36,211.25,340,196.5c-5-4.27-9.24-9.26-13.82-13.92A152.78,152.78,0,0,0,299,160.11a67.83,67.83,0,1,0,14.27,41.36c8.12,8.19,16.12,16.23,27.36,21.6,20.52,9.81,45.67,17.79,67.83,10.57Z"/><path class="cls-9" d="M267,151.94a54.38,54.38,0,0,1,27.83,72,55,55,0,0,1-72.39,27.73,54.38,54.38,0,0,1-27.83-72A55,55,0,0,1,267,151.94Z"/><path class="cls-15" d="M240.36,106c-53,3.94-92.83,49.12-89,100.92S201.3,297.54,254.3,293.6s92.83-49.12,89-100.92S293.35,102.07,240.36,106Zm41.87,16.79a63.81,63.81,0,0,1,36,30.42,4.16,4.16,0,0,1-2,5.79l-48.76,21a2.7,2.7,0,0,1-3.7-3.13l13-51.19A4.2,4.2,0,0,1,282.23,122.8Zm-26.28,85a3.8,3.8,0,0,1,5.35-.28,3.75,3.75,0,0,1,.27,5.32,3.8,3.8,0,0,1-5.35.28A3.75,3.75,0,0,1,255.95,207.79Zm-1.35-21.72a3.8,3.8,0,0,1,5.34-.37,3.75,3.75,0,0,1,.37,5.31,3.8,3.8,0,0,1-5.34.37A3.75,3.75,0,0,1,254.6,186.07Zm4.33,13.53a3.79,3.79,0,1,1,3.94,3.61A3.78,3.78,0,0,1,258.93,199.59Zm-12.43-11a3.77,3.77,0,1,1,3.5-4A3.78,3.78,0,0,1,246.49,188.58ZM252.26,215a3.79,3.79,0,1,1-4.06-3.47A3.78,3.78,0,0,1,252.26,215Zm-17.87-5.91a3.8,3.8,0,0,1,5.34-.37,3.75,3.75,0,0,1,.37,5.31,3.8,3.8,0,0,1-5.34.37A3.75,3.75,0,0,1,234.39,209.13Zm-2.25-4.66a3.77,3.77,0,1,1,3.63-3.92A3.77,3.77,0,0,1,232.14,204.47Zm6.61-12.11a3.8,3.8,0,0,1-5.35.28,3.75,3.75,0,0,1-.27-5.32,3.8,3.8,0,0,1,5.35-.28A3.75,3.75,0,0,1,238.75,192.36Zm-23.5-71.8A79.8,79.8,0,0,1,268,116.66a4,4,0,0,1,2.85,5.52l-23.17,49.24a3.21,3.21,0,0,1-5.41.4l-29.1-45.39C211.78,124.35,212.76,121.64,215.24,120.55Zm-46.48,40a66.6,66.6,0,0,1,34.41-33.74,4.17,4.17,0,0,1,5.67,2.46l16.48,50.37a2.79,2.79,0,0,1-3.53,3.47l-50.61-16.91A4.12,4.12,0,0,1,168.76,160.51Zm-.42,68.74a78.5,78.5,0,0,1-4.06-52.39,4.08,4.08,0,0,1,5.53-3l49.5,21.78a3.17,3.17,0,0,1,.42,5.38l-45.48,30.18A4,4,0,0,1,168.35,229.25ZM208,276.18a66.41,66.41,0,0,1-34.6-33.49,4.14,4.14,0,0,1,2.37-5.69l50.32-17.46a2.79,2.79,0,0,1,3.55,3.44l-16,50.67A4.16,4.16,0,0,1,208,276.18Zm71.31,3.25a79.8,79.8,0,0,1-52.68,4.21c-2.63-.7-4-3.22-3-5.49l21.81-49.3a3.21,3.21,0,0,1,5.41-.43l30.43,45.12A4,4,0,0,1,279.31,279.44Zm47.88-45.16a68.83,68.83,0,0,1-32.72,36.54,4.13,4.13,0,0,1-5.82-2.09l-19.22-49.78a2.87,2.87,0,0,1,3.36-3.75l51.67,13.54A4.12,4.12,0,0,1,327.19,234.28Zm-1.06-14.34L276.7,196.81a3.17,3.17,0,0,1-.38-5.38l45.74-28.85A4.08,4.08,0,0,1,328,164.7a78.5,78.5,0,0,1,3.73,52.42A4,4,0,0,1,326.14,219.94Z"/><polygon class="cls-8" points="345.77 706.54 333.24 673.75 350.26 670.63 358.75 704.07 345.77 706.54"/><polygon class="cls-8" points="251.78 704.71 249.37 676.88 267.29 676.88 263.58 703.45 251.78 704.71"/><polygon class="cls-18" points="244.43 527.95 242.87 549.69 245.99 687.38 271.62 687.38 285.81 585.57 295.44 554.36 293.89 515.6 244.43 527.95"/><path class="cls-18" d="M318.46,521.54l-24-2,0,37.66,37.08,130.31,25.56-4.53-9.59-109.24s6.77-38.08,1.88-43.14c10.68-1.9,17,3.74,5.88-23.42A148.65,148.65,0,0,0,318.46,521.54Z"/><polygon class="cls-9" points="252.17 703.65 237.44 713.73 239.45 720.71 268.13 716.83 263.8 703.65 252.17 703.65"/><polygon class="cls-9" points="358.75 704.07 345.9 706.35 336.27 720.15 342.13 727.14 355.78 719.9 358.75 704.07"/><path class="cls-21" d="M234.34,537.31c10.85-2.33,44.12-23.46,53.48-23.25,34.88.78,34.11,26.35,72.09,33.33s61.86,9.32,57.28-.38h0c-15.46-32.52-30.16-65.24-43.63-99-6.86-17.19-13.48-34.69-23.47-50.36-7.06-11.08-19.32-29.91-32.44-33l-.83-.19c-13.79-3-31.45-1.62-43.91,5.08a43.5,43.5,0,0,0-6.55,4.65c-6.09,4.91-11.06,7.58-13.69,15.07-2.28,6.5-2.81,13.6-4.07,20.34-2.56,13.69-7.61,12.59-6.12,41.32,1.91,36.82-9.09,54.88-14.59,77.7l-.83,3.44C226.76,535.08,227.62,538.75,234.34,537.31Z"/><path class="cls-5" d="M295.58,363.68s-28.68-3.88-34.88,41.08c-5.51,40-.78,68.21-3.88,75.19s-14,54.26-14,54.26l37.21-12.4s14.73-4.65,69.76,23.25c0,0-13.06-49.56-19.38-76.74C322.71,435,322.71,363.68,295.58,363.68Z"/><path class="cls-9" d="M272.78,335.92c-2.4,7.2,1.07,14.88,4.12,21.45,2.7,5.82,3.64,9.65-3.22,11.22-3.87.88-10.73,2.54-14.12-.42-2.57-2.24-1.12-9.17.12-11.92,1-2.1,3.48-3.17,4.38-5.29a7.42,7.42,0,0,0,.44-2.8,38.65,38.65,0,0,0-1.59-11.5c-.75-2.53-1.77-5-2-7.64-.33-3.81,2.37-8.25,3.78-11.75,2.63-6.51,11.8-15.25,19.48-10.14a11.22,11.22,0,0,1,3.62,5.05,9.32,9.32,0,0,1,1,3.6c.06,5-4.51,5.84-7.66,8.22A25,25,0,0,0,272.78,335.92Z"/><path class="cls-8" d="M289.9,367.55C283.24,366,278,360.39,275.54,354s-2.63-13.43-1.94-20.23c2.3-22.65,30.48-21.19,40-3.84C321.93,345.08,309.26,372.11,289.9,367.55Z"/><path class="cls-9" d="M308.08,337.1c.29,3.54-1.57,7.48.37,10.45.87,1.32,2.32,2.12,3.55,3.11a12.57,12.57,0,0,1,4.39,11.57l21.27-.82a6.39,6.39,0,0,0,3.11-.65c2-1.18,2.06-3.93,1.93-6.22-.25-4.5-.62-9.31-3.42-12.84-1.3-1.63-3-2.87-4.33-4.51-6.22-7.88-.13-21.73-7.71-28.33-3.38-2.94-8.28-3.16-12.42-4.88-7.22-3-12-10.47-19.36-13-14-4.75-27.51,12.29-19.23,24.74C283,325.89,306.93,322.84,308.08,337.1Z"/><polygon class="cls-8" points="231.19 300.53 231.38 286.02 225.18 285.68 226.38 299.1 220 294.06 221.35 306.49 227.75 307.72 231.19 300.53"/><polygon class="cls-21" points="215.33 306.62 218.15 360.27 245.91 419.07 267.97 378.56 242.87 355.52 229.13 305.38 215.33 306.62"/><polygon class="cls-8" points="290.18 384.92 288.75 371.15 290.87 367.48 293.85 376.94 296.33 375.58 296.18 387.34 290.44 388.32 290.18 384.92"/><polygon class="cls-21" points="287.07 387.26 310.27 435.59 332.42 467.38 346.81 436.6 298.85 381.3 287.07 387.26"/></g></g></g></svg>